<svg width="67" height="61" viewBox="0 0 67 61" fill="none" xmlns="http://www.w3.org/2000/svg">
<mask id="mask0_107_44" style="mask-type:luminance" maskUnits="userSpaceOnUse" x="0" y="0" width="67" height="61">
<path d="M66.6793 0.539978H0.148682V60.54H66.6793V0.539978Z" fill="white"/>
</mask>
<g mask="url(#mask0_107_44)">
<path d="M28.4945 34.2438C28.0455 34.3067 27.7449 34.7193 27.4798 35.0843C27.4106 35.1792 27.3444 35.2717 27.2784 35.3507C26.3303 36.49 25.3981 37.6543 24.411 38.8865C24.0692 39.3132 23.7181 39.7509 23.3576 40.1996C22.8773 39.7778 22.4042 39.3618 21.9382 38.9516C20.566 37.7436 19.2696 36.6023 17.9458 35.4623L17.8793 35.4049C17.3606 34.9072 16.7659 34.4949 16.1175 34.1833C15.6706 33.9983 14.7084 34.2166 14.5005 34.6443C14.3108 35.0354 14.4375 35.5379 14.5488 35.9814C14.5753 36.0811 14.5986 36.1789 14.6187 36.2722C14.6468 36.3567 14.6921 36.4347 14.7517 36.5011C14.8114 36.5672 14.8842 36.6205 14.9654 36.6573C15.013 36.6848 15.058 36.716 15.1003 36.7506C16.8004 38.4116 18.4987 40.0746 20.2181 41.7584L21.2333 42.7527L20.0199 44.2592C18.7704 45.8103 17.4788 47.4139 16.1969 48.9809C15.8568 49.396 15.3437 50.0229 15.8757 50.7515C15.9869 50.9139 16.1362 51.0466 16.3104 51.138C16.4847 51.2298 16.6787 51.278 16.8757 51.278C17.2195 51.2674 17.5522 51.1539 17.83 50.9515C18.4048 50.5486 18.9188 50.0658 19.3564 49.5176C20.3864 48.2572 21.3758 47.0025 22.423 45.6739C22.7679 45.2368 23.1158 44.7964 23.4666 44.3523C23.5337 44.4009 23.5997 44.4494 23.6647 44.4968C23.9534 44.7082 24.2262 44.9058 24.5218 45.0813L25.1555 45.4576C26.7774 46.4217 28.4547 47.4188 30.1365 48.3462C30.4596 48.4878 30.8143 48.5433 31.1652 48.507C31.3123 48.507 31.4512 48.5041 31.5803 48.5147C31.6217 48.518 31.6633 48.5123 31.702 48.4972C31.7404 48.4821 31.7754 48.4584 31.8035 48.4282C31.8316 48.3976 31.8523 48.3613 31.8642 48.3217C31.8761 48.2821 31.8788 48.2401 31.8719 48.1992C31.8515 48.0568 31.839 47.9131 31.8342 47.769C31.8138 47.3837 31.7926 46.985 31.5493 46.7119C30.5914 45.6258 29.559 44.607 28.4595 43.6637C27.7602 43.0907 27.031 42.5552 26.2746 42.0596C26.0193 41.8862 25.7639 41.7123 25.5099 41.5352C25.8095 41.0999 26.1047 40.672 26.3957 40.2515C27.2643 38.9949 28.0849 37.8076 28.8958 36.5978C28.9488 36.5185 29.0121 36.4337 29.0763 36.347C29.4254 35.8762 30.009 35.0885 29.2239 34.4756C29.1248 34.3889 29.009 34.3236 28.8833 34.2837C28.7579 34.2438 28.6254 34.2303 28.4945 34.2438Z" fill="#0D0C22"/>
<path d="M12.9779 18.8574C13.0534 18.9102 13.1274 18.9631 13.1958 19.016C13.4072 19.1397 13.6558 19.1849 13.8974 19.1436C13.9422 19.1415 13.9864 19.1395 14.0285 19.139C14.9709 19.125 15.9133 19.1091 16.8557 19.0913C17.5429 19.0788 18.2303 19.0668 18.9177 19.0553C19.2421 19.0503 19.5663 19.0517 19.8942 19.053H20.1327C20.2022 19.4365 20.2653 19.8131 20.3302 20.1842C20.5102 21.2373 20.6804 22.2319 20.9372 23.2289C21.1201 23.9402 21.4185 25.1013 22.469 25.101C22.5435 25.1009 22.6178 25.0954 22.6916 25.0847C23.9809 24.9015 23.8971 23.4301 23.8616 22.8018C23.8085 21.855 23.6816 20.9112 23.5477 19.9118C23.4997 19.5557 23.451 19.1913 23.4038 18.8149L23.5409 18.794C23.8165 18.7517 24.0801 18.7112 24.3446 18.6803C24.7194 18.6358 25.095 18.596 25.4708 18.5566C26.2106 18.4774 26.9759 18.3981 27.7258 18.2807C28.2193 18.2035 29.375 18.0227 29.318 16.7904C29.2626 15.579 28.2003 15.5553 27.5652 15.5407C27.1676 15.5331 26.7673 15.5407 26.3799 15.5481C26.1387 15.5528 25.8975 15.5579 25.6561 15.5587C24.9404 15.5613 24.2273 15.5606 23.4714 15.5603H22.6916C22.6516 15.2622 22.6122 14.9635 22.5732 14.6643C22.4557 13.7685 22.3346 12.8426 22.1933 11.9323C22.1753 11.816 22.1639 11.6915 22.152 11.5646C22.0918 10.9247 22.0008 9.95736 20.8685 9.95471H20.8642C20.6964 9.94385 20.5282 9.96683 20.3696 10.0223C20.2109 10.0778 20.065 10.1646 19.9408 10.2776C19.5795 10.6413 19.5859 11.1964 19.5915 11.6862C19.5931 11.8207 19.5946 11.9505 19.5874 12.0703C19.5294 13.0218 19.5411 13.9633 19.5533 14.9601C19.5575 15.2984 19.5618 15.6417 19.5631 15.9909C19.5136 15.9964 19.4631 16.0017 19.4119 16.0078C19.105 16.0414 18.7706 16.0781 18.4358 16.1029C17.3625 16.1812 16.289 16.2569 15.2155 16.3302L13.4263 16.455C13.2014 16.4544 12.9789 16.5006 12.7728 16.5907C12.5668 16.6807 12.3819 16.8127 12.2299 16.9781C12.141 17.0967 12.079 17.2333 12.0482 17.3782C12.0174 17.523 12.0183 17.6729 12.0512 17.8174C12.1315 18.2527 12.5803 18.5737 12.9779 18.8574Z" fill="#0D0C22"/>
<path d="M40.2425 18.1553C40.3276 18.16 40.4281 18.1656 40.5309 18.1656C40.5805 18.1656 40.6309 18.1643 40.6816 18.1611C41.5979 18.103 42.5147 18.0466 43.4314 17.9922C45.9922 17.8367 48.64 17.6766 51.2416 17.4636C51.9812 17.3675 52.7049 17.1727 53.3926 16.8845C53.5591 16.8231 53.7249 16.762 53.8902 16.7041C54.1857 16.6008 54.6024 16.1428 54.5195 15.8156C54.4685 15.6259 54.3722 15.4515 54.2379 15.3078C54.104 15.1641 53.9367 15.0554 53.751 14.9914C53.0832 14.8614 52.42 14.79 51.8355 14.7271C51.6432 14.7062 51.464 14.6869 51.2979 14.6668C51.2787 14.6645 51.2596 14.6645 51.2408 14.6668C50.7106 14.7128 50.2085 14.7549 49.7228 14.7954C48.7069 14.8802 47.7469 14.9605 46.7991 15.0559C44.3453 15.3036 41.9065 15.5721 40.056 15.778C39.5974 15.8293 38.5236 15.9488 38.6421 17.0766C38.746 18.0728 39.6464 18.1223 40.2425 18.1553Z" fill="#0D0C22"/>
<path d="M53.8669 41.1337C53.2722 40.9683 52.6514 40.9181 52.0379 40.9862C47.6237 41.409 43.9359 41.791 40.4337 42.1869C40.1151 42.2588 39.8262 42.4269 39.6067 42.6682C39.516 42.7518 39.4211 42.8302 39.3223 42.9041C39.2881 42.9278 39.26 42.96 39.2401 42.9967C39.2202 43.0335 39.2091 43.0747 39.2077 43.1163C39.2064 43.158 39.2146 43.1996 39.2319 43.2375C39.2494 43.2759 39.2751 43.3098 39.3077 43.3359C39.4023 43.4167 39.4927 43.5024 39.578 43.5931C39.7819 43.8604 40.0721 44.0494 40.3997 44.1273C41.1228 44.1857 41.8486 44.2012 42.5731 44.1743C42.7767 44.1706 42.9808 44.1669 43.1845 44.1653C43.1984 44.1894 43.2167 44.211 43.2375 44.2298C43.2869 44.2726 43.3506 44.2963 43.4163 44.2963C43.4241 44.2967 43.4322 44.2967 43.4396 44.2963L45.6502 44.1041C47.9771 43.9012 50.3045 43.6959 52.631 43.4873C53.0722 43.4673 53.5061 43.369 53.9122 43.1963C54.1979 43.0563 54.8024 42.6094 54.7408 42.1955C54.6922 41.9612 54.5873 41.742 54.4351 41.5571C54.2828 41.3722 54.0877 41.2268 53.8669 41.1337Z" fill="#0D0C22"/>
<path d="M41.1844 39.4376C41.3975 39.4924 41.6175 39.518 41.8379 39.5141C41.9938 39.5141 42.1497 39.5048 42.3032 39.4963C42.4093 39.4903 42.5183 39.4844 42.6244 39.4818C42.6653 39.5003 42.7093 39.5085 42.7538 39.5059C43.3224 39.4731 43.891 39.4411 44.4595 39.4104C45.762 39.3385 47.1089 39.264 48.433 39.1725C50.0808 39.0576 51.693 38.9373 53.3012 38.7301C53.6257 38.6465 53.9142 38.4602 54.1232 38.1988C54.2101 38.109 54.3024 38.0238 54.3983 37.9435C54.4293 37.9192 54.4542 37.8885 54.4718 37.8536C54.4897 37.8185 54.4995 37.7801 54.5008 37.741C54.5024 37.7019 54.495 37.6628 54.4799 37.6265C54.4648 37.5903 54.4424 37.5579 54.4134 37.5314C54.3183 37.4436 54.2265 37.3503 54.1346 37.257C53.9065 37.0027 53.6428 36.7829 53.3518 36.6039C53.0681 36.4876 52.7554 36.4607 52.4559 36.5273C52.3901 36.5349 52.3261 36.5423 52.2644 36.5471L51.5771 36.6015C49.635 36.7559 47.6277 36.9155 45.6526 37.0945C44.4277 37.2055 42.8146 37.362 41.2048 37.5888C40.935 37.6577 40.6926 37.8087 40.5121 38.0204C40.4421 38.0899 40.3681 38.156 40.291 38.2179C40.2603 38.2414 40.2346 38.2712 40.2163 38.3056C40.1977 38.3397 40.1871 38.3775 40.1845 38.4163C40.1821 38.4552 40.1879 38.4941 40.2017 38.5303C40.2155 38.5667 40.237 38.5995 40.2648 38.627C40.3417 38.7055 40.4146 38.7874 40.4832 38.8733C40.6538 39.1284 40.8983 39.3253 41.1844 39.4376Z" fill="#0D0C22"/>
<path d="M8.33039 59.3575C10.2067 59.7465 12.1109 59.9873 14.0252 60.0763C17.5882 60.2216 21.2121 60.302 24.717 60.38C26.142 60.4118 27.567 60.4453 28.9916 60.4796H28.9988C29.0516 60.48 29.1035 60.4645 29.1478 60.4355H30.2573C31.1988 60.4355 32.1409 60.4355 33.0834 60.4355L34.5858 60.438C40.484 60.4494 46.584 60.4612 52.5391 59.5306C54.6167 59.2057 57.0436 58.7527 59.2918 57.851C63.804 56.0429 66.2391 52.709 66.5281 47.9412C66.7138 44.8751 66.5734 41.7873 66.4371 38.8021C66.4105 38.2291 66.3852 37.6558 66.3603 37.0822C66.1252 31.4655 65.8975 26.776 65.6424 22.3236C65.4697 19.3043 65.2236 15.3311 64.8485 11.3729C64.302 5.59784 59.6432 1.41792 53.5195 1.20832C48.9873 1.05264 44.375 0.98768 39.9133 0.924772C38.6431 0.907327 37.3507 0.917942 36.1009 0.928515C34.0496 0.945695 31.9291 0.963345 29.8542 0.85392C25.1419 0.606253 20.1461 0.813537 13.659 1.52878C9.43917 1.99398 6.2637 3.23097 3.66423 5.42216C1.52174 7.22771 0.477401 9.32232 0.472099 11.8254C0.470242 12.6311 0.454038 13.4478 0.423821 14.2529C0.397315 14.9621 0.348311 15.6864 0.301127 16.3871C0.168211 17.8864 0.132692 19.3929 0.195 20.8969C0.234759 21.5238 0.275393 22.1506 0.316919 22.7774C0.638968 27.6902 0.971972 32.7702 0.633752 37.7821C0.494593 39.8473 0.532462 41.9531 0.569037 43.9898L0.577323 44.4469C0.638817 47.9437 1.15171 51.018 2.14569 53.8453C3.2168 56.8955 5.29782 58.7502 8.33039 59.3575ZM7.99737 6.15061L8.06235 6.11535C9.88704 5.11624 11.9086 4.76743 13.8226 4.49861C18.1794 3.92703 22.5711 3.66205 26.9652 3.70566C28.7961 3.70566 30.6011 3.73603 32.3712 3.77303C35.5851 3.84043 38.853 3.88431 42.013 3.92634C44.782 3.96361 47.6452 4.00188 50.4607 4.05607C51.7628 4.07161 53.062 4.18249 54.3477 4.3876C58.9697 5.15543 61.5256 8.1522 61.7399 13.0537C61.9154 17.0803 62.0775 21.1755 62.2346 25.136C62.3518 28.1036 62.4709 31.0714 62.593 34.0391C62.6375 35.1128 62.6987 36.2029 62.7583 37.2572C62.8518 38.9071 62.9481 40.614 62.982 42.2894C63.0224 44.2771 62.9118 46.3094 62.7963 48.2204C62.6269 51.0061 61.0007 52.9853 57.9652 54.102C56.1056 54.7535 54.1836 55.211 52.2297 55.4678C45.6493 56.4457 38.896 56.4033 32.3648 56.3608L31.5021 56.3551C31.163 56.3535 30.8243 56.3535 30.4863 56.3551H30.0036C29.961 56.3551 29.9191 56.3653 29.881 56.3845C29.843 56.4037 29.8102 56.4314 29.7847 56.4653C28.3534 56.429 26.9221 56.3935 25.4907 56.3596C21.312 56.2575 16.991 56.1514 12.7431 56.0122C11.6474 55.9461 10.5584 55.7947 9.48602 55.5608L9.29435 55.5241C7.49855 55.182 6.297 54.0755 5.72313 52.2359C4.85211 49.3608 4.41639 46.3722 4.43043 43.3686C4.42088 41.9955 4.4406 40.5976 4.45941 39.2454C4.4846 37.442 4.51047 35.5772 4.46835 33.7418C4.39439 30.5496 4.23219 27.1074 3.95892 22.9123C3.7429 19.6043 3.6114 15.2434 4.52349 10.824C4.54443 10.7635 4.55349 10.6994 4.55002 10.6355C4.33692 8.15245 6.11545 7.1793 7.99737 6.14979V6.15061Z" fill="#0D0C22"/>
</g>
</svg>
