<svg width="46" height="61" viewBox="0 0 46 61" fill="none" xmlns="http://www.w3.org/2000/svg">
<path d="M42.8436 25.3231C41.2507 23.7334 39.0922 22.8406 36.8418 22.8406C34.5914 22.8406 32.4329 23.7334 30.84 25.3231L29.1511 27.012C28.1928 27.9702 27.4508 29.1225 26.975 30.3914C26.4992 31.6603 26.3006 33.0163 26.3926 34.3684L26.4503 35.2128C26.4779 35.6271 26.407 36.0421 26.2433 36.4237C26.0797 36.8053 25.828 37.1427 25.5088 37.4083L22.7841 39.7207L21.1276 38.3133C20.7073 37.9625 20.3759 37.5172 20.1606 37.0138C19.9454 36.5104 19.8523 35.9632 19.8891 35.4169L19.9468 34.5725C20.0307 33.3406 19.8497 32.1052 19.4162 30.9491C18.9826 29.7931 18.3064 28.7433 17.4332 27.8705L11.6305 22.0678L9.27457 24.4238L13.1111 28.2589L11.3181 30.0533L7.48296 26.2182L5.04114 28.6558L8.86502 32.4811L7.07341 34.2727L3.24954 30.4474L0.816162 32.8808L6.61883 38.6834C7.49168 39.5567 8.54144 40.2328 9.69747 40.6664C10.8535 41.1 12.089 41.2809 13.3208 41.197L14.1652 41.1393C14.7115 41.1026 15.2587 41.1956 15.7621 41.4109C16.2655 41.6262 16.7108 41.9575 17.0616 42.3778L18.1439 43.6529L9.55886 50.9418C8.69991 51.6592 8.08274 52.6238 7.79128 53.7043C7.49982 54.7849 7.5482 55.9289 7.92985 56.981C8.3115 58.0331 9.00789 58.9421 9.92434 59.5844C10.8408 60.2268 11.9328 60.5713 13.052 60.5712C13.1336 60.5712 13.2153 60.5712 13.2969 60.5712C14.0518 60.536 14.7912 60.3443 15.4681 60.0083C16.145 59.6722 16.7447 59.1992 17.2291 58.6191L24.0339 50.59L30.6021 58.3306C31.0123 58.8207 31.5199 59.2203 32.0926 59.504C32.6653 59.7877 33.2907 59.9493 33.9292 59.9786C33.9982 59.9786 34.0699 59.9786 34.1347 59.9786C35.0809 59.9797 36.0044 59.6892 36.7796 59.1467C37.5548 58.6042 38.144 57.836 38.467 56.9466C38.79 56.0573 38.8311 55.09 38.5847 54.1765C38.3384 53.2629 37.8165 52.4475 37.0902 51.8411L28.8725 44.8858L30.7626 42.6551C31.028 42.3376 31.3648 42.0873 31.7453 41.9246C32.1259 41.762 32.5395 41.6916 32.9525 41.7192L33.7969 41.7755C35.1494 41.8679 36.5061 41.6692 37.7753 41.1929C39.0446 40.7166 40.197 39.9736 41.1547 39.0142L42.8436 37.3253C44.4329 35.7325 45.3254 33.5743 45.3254 31.3242C45.3254 29.0741 44.4329 26.9159 42.8436 25.3231ZM41.0534 35.5351L39.3645 37.224C38.6621 37.9266 37.8174 38.4707 36.8871 38.8196C35.9568 39.1684 34.9626 39.314 33.9714 39.2464L33.127 39.1887C32.3164 39.1331 31.5042 39.2698 30.7565 39.5877C30.0088 39.9057 29.3468 40.3959 28.8246 41.0183L15.2897 56.9894C15.0305 57.3015 14.7089 57.556 14.3457 57.7367C13.9824 57.9174 13.5854 58.0203 13.18 58.0387C12.7747 58.0572 12.37 57.9908 11.9918 57.8438C11.6136 57.6968 11.2703 57.4725 10.9838 57.1852C10.6973 56.8979 10.4739 56.554 10.328 56.1754C10.182 55.7968 10.1167 55.3919 10.1363 54.9866C10.1558 54.5813 10.2598 54.1846 10.4415 53.8218C10.6232 53.459 10.8786 53.1382 11.1914 52.8798L27.1357 39.3449C27.76 38.822 28.2519 38.1589 28.5713 37.4098C28.8907 36.6606 29.0286 35.8466 28.9738 35.0341L28.9161 34.1897C28.8486 33.1984 28.9942 32.2043 29.3431 31.274C29.6919 30.3438 30.2359 29.499 30.9385 28.7965L32.6274 27.1077C33.1804 26.5547 33.8368 26.116 34.5593 25.8168C35.2819 25.5175 36.0562 25.3635 36.8383 25.3635C37.6203 25.3635 38.3947 25.5175 39.1172 25.8168C39.8397 26.116 40.4962 26.5547 41.0492 27.1077C41.6022 27.6607 42.0408 28.3171 42.3401 29.0397C42.6394 29.7622 42.7934 30.5365 42.7934 31.3186C42.7934 32.1006 42.6394 32.875 42.3401 33.5975C42.0408 34.32 41.6022 34.9765 41.0492 35.5295L41.0534 35.5351Z" fill="#0D0C22"/>
<path d="M22.8432 18.7323C22.9389 18.7323 25.8227 18.6943 26.3617 18.6479C30.1616 18.3199 33.1551 17.0378 35.2902 14.824C38.6679 11.3266 38.9578 6.41765 38.834 3.80272C38.7971 2.96352 38.4472 2.16858 37.8532 1.5746C37.2593 0.980624 36.4643 0.630722 35.6251 0.593876C33.0088 0.470026 28.1012 0.76417 24.6039 4.13627C24.2408 4.48805 23.9023 4.86423 23.5905 5.26219C23.2788 4.86423 22.9402 4.48805 22.5772 4.13627C19.0799 0.758541 14.1709 0.468619 11.556 0.593876C10.7168 0.630722 9.92181 0.980624 9.32783 1.5746C8.73386 2.16858 8.38395 2.96352 8.34711 3.80272C8.22326 6.41765 8.5174 11.3252 11.8895 14.824C14.3947 17.4178 18.0736 18.7323 22.8432 18.7323ZM26.3617 5.96025C28.8528 3.55924 32.3684 3.10466 34.6737 3.10466C34.9721 3.10466 35.2507 3.11169 35.5041 3.12436C35.7142 3.13468 35.9129 3.22308 36.0613 3.37224C36.2097 3.52141 36.2971 3.7206 36.3063 3.9308C36.4104 6.13758 36.1824 10.264 33.469 13.0788C31.8195 14.7888 29.4467 15.8049 26.4025 16.1103C26.4558 15.8733 26.4841 15.6313 26.4869 15.3884C26.5193 12.3653 26.0324 9.77005 25.0345 7.62519C25.408 7.01786 25.8547 6.4587 26.3645 5.96025H26.3617ZM10.8804 3.9308C10.8913 3.7223 10.979 3.52521 11.1266 3.37759C11.2742 3.22996 11.4713 3.14225 11.6798 3.1314C13.8866 3.02584 18.0131 3.25525 20.8278 5.96729C22.7278 7.79689 23.7693 10.5202 23.9353 14.064C22.8272 12.4451 21.2473 11.2068 19.4106 10.5174L18.6295 12.879C18.7505 12.9212 21.0995 13.7487 22.2971 16.199C18.5225 16.1075 15.636 15.0562 13.7233 13.0732C11.0043 10.2528 10.7749 6.13054 10.8804 3.9308Z" fill="#0D0C22"/>
</svg>
