<svg width="58" height="61" viewBox="0 0 58 61" fill="none" xmlns="http://www.w3.org/2000/svg">
<path d="M44.2179 12.8121C47.649 12.8121 50.4304 10.0307 50.4304 6.59968C50.4304 3.16862 47.649 0.387207 44.2179 0.387207C40.7869 0.387207 38.0054 3.16862 38.0054 6.59968C38.0054 10.0307 40.7869 12.8121 44.2179 12.8121Z" fill="#0D0C22"/>
<path d="M40.419 28.247C41.1321 29.3096 42.1549 30.127 43.3485 30.5882C44.5422 31.0494 45.8489 31.1322 47.0912 30.8252L57.3914 28.2501L55.8911 22.224L45.5909 24.7991L41.3074 18.3785C40.3922 17.0073 38.9718 16.0537 37.3562 15.7258L25.4097 13.334C24.0732 13.0658 22.6856 13.245 21.4611 13.844C20.2367 14.4431 19.2435 15.4286 18.635 16.6483L13.4848 26.9486L19.0419 29.7287L24.192 19.4253L30.302 20.6492L14.5037 46.9807H0.730652V53.1932H14.5037C16.6718 53.1932 18.7126 52.0377 19.8309 50.177L25.7886 40.2495L41.8447 43.4613L47.4857 60.3872L53.3751 58.421L47.7373 41.4982C47.3893 40.4592 46.7737 39.5303 45.9525 38.805C45.1312 38.0797 44.1333 37.5837 43.0593 37.3669L33.6194 35.4814L39.1237 26.3056L40.419 28.247Z" fill="#0D0C22"/>
</svg>
