<svg width="92" height="27" viewBox="0 0 92 27" fill="none" xmlns="http://www.w3.org/2000/svg">
<path d="M7.67697 26.5L0.293881 7.94965C0.964269 7.49096 1.72287 7.21751 2.56967 7.1293L8.78841 22.7423L14.8219 7.1293C15.2453 7.14695 15.6687 7.23516 16.0921 7.39393C16.5155 7.55271 16.8419 7.73795 17.0712 7.94965L9.87338 26.5C9.73224 26.5529 9.57347 26.597 9.39705 26.6323C9.23827 26.6676 9.03539 26.6852 8.78841 26.6852C8.54142 26.6852 8.32972 26.6676 8.1533 26.6323C7.97688 26.597 7.81811 26.5529 7.67697 26.5ZM18.4287 26.6588C18.0406 26.5176 17.7054 26.2971 17.4231 25.9972C17.1408 25.6973 16.9556 25.3356 16.8674 24.9122C17.1849 24.6123 17.5554 24.233 17.9788 23.7743C18.4022 23.3157 18.8168 22.7688 19.2226 22.1337C19.6283 21.4809 19.9635 20.7488 20.2281 19.9373C20.5104 19.1257 20.6516 18.2172 20.6516 17.2116V14.0096C20.8103 13.9567 20.9956 13.9126 21.2073 13.8773C21.419 13.842 21.6395 13.8244 21.8688 13.8244C22.2746 13.8244 22.6715 13.8861 23.0597 14.0096V21.869C23.0597 22.8923 23.192 23.6067 23.4566 24.0125C23.7389 24.4006 24.1446 24.5947 24.6739 24.5947C24.9209 24.5947 25.1061 24.7005 25.2296 24.9122C25.3707 25.1239 25.4413 25.4062 25.4413 25.759C25.4413 26.0413 25.3619 26.2971 25.2031 26.5265C25.062 26.7558 24.8238 26.8705 24.4886 26.8705C23.6242 26.8705 22.8568 26.6411 22.1864 26.1824C21.5336 25.7061 21.0838 24.9475 20.8368 23.9067C20.0606 25.1592 19.2578 26.0766 18.4287 26.6588ZM21.8953 9.53741C21.4013 9.53741 20.9779 9.36099 20.6251 9.00816C20.2723 8.65532 20.0958 8.23192 20.0958 7.73795C20.0958 7.22633 20.2634 6.80293 20.5986 6.46774C20.9515 6.1149 21.3837 5.93848 21.8953 5.93848C22.4069 5.93848 22.8303 6.1149 23.1655 6.46774C23.5183 6.80293 23.6948 7.22633 23.6948 7.73795C23.6948 8.23192 23.5183 8.65532 23.1655 9.00816C22.8303 9.36099 22.4069 9.53741 21.8953 9.53741ZM24.67 24.5947C25.111 24.5947 25.6138 24.4624 26.1783 24.1977C26.7605 23.9331 27.325 23.4833 27.8719 22.8481C28.4188 22.213 28.8687 21.3574 29.2215 20.2813C29.5744 19.1875 29.7508 17.8202 29.7508 16.1795V13.6391H27.7926C27.6691 13.3569 27.6073 13.004 27.6073 12.5806C27.6073 12.1572 27.6691 11.8044 27.7926 11.5221H29.7508V6.83821C30.086 6.71472 30.4917 6.65297 30.9681 6.65297C31.3915 6.65297 31.7972 6.71472 32.1854 6.83821V11.5221H36.1283C36.2694 11.8044 36.34 12.1572 36.34 12.5806C36.34 13.004 36.2694 13.3569 36.1283 13.6391H32.1854V19.1169C32.1854 20.8811 32.45 22.2395 32.9792 23.1922C33.5261 24.1272 34.2936 24.5947 35.2815 24.5947C35.7931 24.5947 36.0489 24.9828 36.0489 25.759C36.0489 26.0942 35.9607 26.3589 35.7843 26.5529C35.6255 26.7646 35.3962 26.8705 35.0963 26.8705C33.9495 26.8705 32.9792 26.5441 32.1854 25.8914C31.4091 25.2386 30.8358 24.3301 30.4653 23.1657C29.7243 24.4359 28.8158 25.3709 27.7396 25.9707C26.6635 26.5706 25.5785 26.8705 24.4847 26.8705C24.2554 26.8705 24.0701 26.7558 23.929 26.5265C23.7879 26.3148 23.7173 26.0501 23.7173 25.7326C23.7173 25.3974 23.7967 25.1239 23.9555 24.9122C24.1142 24.7005 24.3524 24.5947 24.67 24.5947ZM35.2912 24.5947C35.891 24.5947 36.4732 24.3036 37.0378 23.7214C37.6199 23.1216 38.1051 22.3189 38.4932 21.3133C38.4756 21.0663 38.4667 20.8193 38.4667 20.5724C38.4667 19.2316 38.7314 18.0408 39.2606 16.9999C39.7899 15.959 40.5044 15.1387 41.4041 14.5389C42.3215 13.939 43.3623 13.6391 44.5267 13.6391C45.1442 13.6391 45.7528 13.7626 46.3526 14.0096C46.9524 14.2389 47.4552 14.5565 47.861 14.9623V13.8773C48.0198 13.8244 48.205 13.7803 48.4167 13.745C48.6284 13.7097 48.8489 13.6921 49.0783 13.6921C49.5017 13.6921 49.8986 13.7538 50.2691 13.8773V21.6309C50.2691 22.5659 50.4102 23.298 50.6925 23.8273C50.9924 24.3389 51.4864 24.5947 52.1744 24.5947C52.4743 24.5947 52.6772 24.7182 52.7831 24.9652C52.8889 25.2121 52.9418 25.4768 52.9418 25.759C52.9418 26.0413 52.8624 26.2971 52.7037 26.5265C52.5625 26.7558 52.3244 26.8705 51.9892 26.8705C50.2603 26.8705 49.1047 26.0942 48.5226 24.5418C48.011 25.2651 47.367 25.8384 46.5908 26.2618C45.8322 26.6676 44.9854 26.8705 44.0504 26.8705C43.0271 26.8705 42.1186 26.65 41.3247 26.2089C40.5485 25.7502 39.9134 25.1239 39.4194 24.3301C38.3256 26.0237 36.8878 26.8705 35.106 26.8705C34.8766 26.8705 34.6914 26.7646 34.5503 26.5529C34.4091 26.3412 34.3386 26.0678 34.3386 25.7326C34.3386 24.974 34.6561 24.5947 35.2912 24.5947ZM40.9278 20.5724C40.9278 21.8249 41.21 22.8129 41.7746 23.5362C42.3568 24.2418 43.1506 24.5947 44.1562 24.5947C45.2677 24.5947 46.1586 24.1889 46.829 23.3774C47.517 22.5482 47.861 21.4633 47.861 20.1225V17.5027C47.5082 17.0264 47.0583 16.6471 46.5114 16.3648C45.9645 16.0649 45.4 15.9149 44.8178 15.9149C44.0592 15.9149 43.3888 16.1178 42.8066 16.5236C42.2244 16.9293 41.7658 17.485 41.4306 18.1907C41.0954 18.8787 40.9278 19.6726 40.9278 20.5724ZM51.9811 26.8705C51.7518 26.8705 51.5665 26.7646 51.4254 26.5529C51.2843 26.3412 51.2137 26.0678 51.2137 25.7326C51.2137 25.3797 51.3019 25.1063 51.4783 24.9122C51.6371 24.7005 51.8576 24.5947 52.1399 24.5947C52.7397 24.5947 53.3925 24.3653 54.0981 23.9067C54.8038 23.448 55.4742 22.8217 56.1093 22.0278C56.0034 21.3927 55.9241 20.6165 55.8711 19.6991C55.8182 18.7817 55.7829 17.635 55.7653 16.2589C55.7476 14.8829 55.7388 13.1893 55.7388 11.1781V7.87026C55.7388 7.04109 55.7653 6.2825 55.8182 5.59447C55.8888 4.90644 56.0034 4.28897 56.1622 3.74208C56.4974 2.59536 56.9914 1.75738 57.6441 1.22812C58.3145 0.681226 59.1084 0.407778 60.0258 0.407778C61.3489 0.407778 62.381 1.01642 63.1219 2.2337C63.8805 3.43335 64.2598 5.10932 64.2598 7.26162C64.2598 9.80204 63.7658 12.413 62.7779 15.0946C61.79 17.7585 60.3786 20.3077 58.5439 22.7423C58.5615 22.7776 58.5791 22.8217 58.5968 22.8746C58.8261 23.4391 59.1437 23.8714 59.5494 24.1713C59.9728 24.4712 60.5109 24.6211 61.1637 24.6211C61.4107 24.6211 61.6047 24.727 61.7458 24.9387C61.9046 25.1328 61.984 25.4062 61.984 25.759C61.984 26.5 61.6576 26.8705 61.0049 26.8705C59.9464 26.8705 59.0908 26.65 58.438 26.2089C57.7853 25.7679 57.2825 25.2121 56.9296 24.5418C55.4124 26.0942 53.7629 26.8705 51.9811 26.8705ZM57.9881 11.3369C57.9881 13.4362 57.9881 15.1387 57.9881 16.4442C58.0058 17.7497 58.0322 18.8082 58.0675 19.6197C60.6962 15.2622 62.0105 11.134 62.0105 7.23515C62.0105 5.7356 61.8341 4.58889 61.4812 3.795C61.146 3.00112 60.6521 2.60418 59.9993 2.60418C59.3466 2.60418 58.8438 3.01876 58.4909 3.84793C58.1557 4.67709 57.9881 6.1149 57.9881 8.16135V11.3369ZM61.1215 26.8705C60.8569 26.8705 60.654 26.7646 60.5128 26.5529C60.3541 26.3412 60.2747 26.0678 60.2747 25.7326C60.2747 25.3797 60.3629 25.1063 60.5393 24.9122C60.7157 24.7182 60.9451 24.6211 61.2273 24.6211C62.427 24.6211 63.4943 24.2683 64.4293 23.5626C65.382 22.8393 66.1229 21.8514 66.6522 20.5988C67.1991 19.3463 67.4725 17.9173 67.4725 16.3119V14.0096C67.6313 13.9567 67.8166 13.9126 68.0283 13.8773C68.24 13.842 68.4605 13.8244 68.6898 13.8244C69.0956 13.8244 69.4925 13.8861 69.8806 14.0096V21.6309C69.8806 22.5659 70.0218 23.298 70.304 23.8273C70.604 24.3389 71.0979 24.5947 71.786 24.5947C72.0859 24.5947 72.2887 24.7182 72.3946 24.9652C72.5005 25.2121 72.5534 25.4768 72.5534 25.759C72.5534 26.0413 72.474 26.2971 72.3152 26.5265C72.1741 26.7558 71.9359 26.8705 71.6007 26.8705C69.4308 26.8705 68.1606 25.662 67.7901 23.2451C67.0315 24.3742 66.0788 25.2651 64.9321 25.9178C63.803 26.5529 62.5328 26.8705 61.1215 26.8705ZM68.7163 9.53741C68.2223 9.53741 67.7989 9.36099 67.4461 9.00816C67.0932 8.65532 66.9168 8.23192 66.9168 7.73795C66.9168 7.22633 67.0844 6.80293 67.4196 6.46774C67.7724 6.1149 68.2047 5.93848 68.7163 5.93848C69.2279 5.93848 69.6513 6.1149 69.9865 6.46774C70.3393 6.80293 70.5157 7.22633 70.5157 7.73795C70.5157 8.23192 70.3393 8.65532 69.9865 9.00816C69.6513 9.36099 69.2279 9.53741 68.7163 9.53741ZM71.7808 24.5947C72.3806 24.5947 72.9628 24.3036 73.5273 23.7214C74.1095 23.1216 74.5947 22.3189 74.9828 21.3133C74.9651 21.0663 74.9563 20.8193 74.9563 20.5724C74.9563 19.2316 75.2209 18.0408 75.7502 16.9999C76.2795 15.959 76.9939 15.1387 77.8937 14.5389C78.8111 13.939 79.8519 13.6391 81.0163 13.6391C81.6337 13.6391 82.2424 13.7626 82.8422 14.0096C83.442 14.2389 83.9448 14.5565 84.3506 14.9623V13.8773C84.5094 13.8244 84.6946 13.7803 84.9063 13.745C85.118 13.7097 85.3385 13.6921 85.5679 13.6921C85.9913 13.6921 86.3882 13.7538 86.7587 13.8773V21.6309C86.7587 22.5659 86.8998 23.298 87.1821 23.8273C87.482 24.3389 87.976 24.5947 88.664 24.5947C88.8581 24.5947 89.0698 24.5506 89.2991 24.4624C89.5284 24.3742 89.7666 24.2418 90.0136 24.0654C90.3135 24.2066 90.5605 24.4536 90.7546 24.8064C90.9486 25.1416 91.0368 25.4768 91.0192 25.812C90.7369 26.1295 90.3753 26.3853 89.9342 26.5794C89.4932 26.7734 89.0168 26.8705 88.5052 26.8705H88.4788C86.7499 26.8705 85.5943 26.0942 85.0121 24.5418C84.5005 25.2651 83.8566 25.8384 83.0804 26.2618C82.3218 26.6676 81.475 26.8705 80.5399 26.8705C79.5167 26.8705 78.6082 26.65 77.8143 26.2089C77.0381 25.7502 76.4029 25.1239 75.909 24.3301C74.8152 26.0237 73.3774 26.8705 71.5956 26.8705C71.3662 26.8705 71.181 26.7646 71.0398 26.5529C70.8987 26.3412 70.8281 26.0678 70.8281 25.7326C70.8281 24.974 71.1457 24.5947 71.7808 24.5947ZM77.4174 20.5724C77.4174 21.8249 77.6996 22.8129 78.2642 23.5362C78.8463 24.2418 79.6402 24.5947 80.6458 24.5947C81.7572 24.5947 82.6481 24.1889 83.3185 23.3774C84.0066 22.5482 84.3506 21.4633 84.3506 20.1225V17.5027C83.9977 17.0264 83.5479 16.6471 83.001 16.3648C82.4541 16.0649 81.8895 15.9149 81.3074 15.9149C80.5488 15.9149 79.8784 16.1178 79.2962 16.5236C78.714 16.9293 78.2553 17.485 77.9201 18.1907C77.5849 18.8787 77.4174 19.6726 77.4174 20.5724Z" fill="#0D0C21"/>
</svg>
